<svg width="36" height="34" viewBox="0 0 36 34" fill="none" xmlns="http://www.w3.org/2000/svg">
<path d="M2.5764 16.1416V28.3085H8.31729L8.60718 28.3391C13.9369 29.4543 17.4686 30.2584 19.2288 30.7565C21.5668 31.4178 22.4384 31.5793 24.0242 31.6745C25.2103 31.7476 26.5574 31.3379 27.1713 30.7769C27.5104 30.4675 27.7643 29.8317 27.8647 28.8457C27.8855 28.6389 27.9679 28.441 28.1033 28.2726C28.2386 28.1042 28.4219 27.9716 28.634 27.8886C29.1058 27.705 29.498 27.4058 29.8257 26.9706C30.1289 26.5728 30.3259 25.8316 30.3619 24.7589C30.3683 24.5617 30.4306 24.3692 30.543 24.1996C30.6554 24.03 30.8141 23.889 31.0042 23.7899C32.1069 23.217 32.6526 22.571 32.7663 21.8128C32.8913 20.9747 32.5882 20.0312 31.7943 18.9568C31.608 18.7048 31.5387 18.3976 31.6009 18.1004C31.6632 17.8032 31.8522 17.5396 32.1278 17.3656C32.8875 16.8862 33.3044 16.2198 33.4086 15.2746C33.5753 13.7684 32.5048 12.6549 30.0815 12.4321C27.9232 12.2406 25.7441 12.4037 23.651 12.9132C23.4135 12.9689 23.1633 12.9626 22.9297 12.895C22.6962 12.8274 22.489 12.7014 22.3325 12.5317C22.1761 12.3621 22.0769 12.1559 22.0467 11.9373C22.0164 11.7188 22.0563 11.4971 22.1617 11.2982C23.1091 9.49965 23.6358 8.01554 23.759 6.86634C23.92 5.34144 23.5278 4.23644 22.6108 3.32524C21.9154 2.63503 20.8033 2.24063 20.3864 2.32223C19.837 2.42763 19.4789 2.71324 19.0128 3.71284C18.7381 4.30444 18.6054 4.80764 18.3781 5.98234C18.1602 7.09754 18.0408 7.60074 17.7926 8.26034C17.0442 10.2595 15.2083 12.3318 12.7433 13.7616C11.0157 14.7624 9.14337 15.546 7.17859 16.0906C7.05584 16.1245 6.9281 16.1417 6.79965 16.1416H2.5764ZM2.49683 30.6256C1.88484 30.6409 1.33539 30.5185 0.874978 30.2295C0.287626 29.8606 0.0110024 29.2792 0.00531831 28.6094L0.0110024 16.1603C-0.0534169 15.4973 0.164472 14.8887 0.679825 14.4365C1.16297 14.0115 1.7939 13.8109 2.46083 13.8245H6.60071C8.27534 13.3457 9.87191 12.67 11.3488 11.815C13.3344 10.6624 14.7971 9.01004 15.356 7.52084C15.5474 7.00744 15.6497 6.58244 15.843 5.58284C16.1044 4.24154 16.2674 3.61764 16.6425 2.81524C17.4193 1.14583 18.4387 0.329832 19.8445 0.0561313C21.2277 -0.212469 23.2417 0.503232 24.5149 1.76803C25.9265 3.16884 26.5498 4.92154 26.3187 7.08734C26.2202 8.01894 25.9322 9.06104 25.4585 10.2221C27.0761 10.0106 28.7166 9.97865 30.343 10.1269C34.1456 10.4754 36.2809 12.6973 35.9702 15.5058C35.8338 16.7162 35.3449 17.7447 34.5132 18.5522C35.2123 19.7609 35.4908 20.956 35.3165 22.1222C35.1157 23.4652 34.282 24.5838 32.8951 25.4525C32.7871 26.6306 32.4859 27.5707 31.9516 28.2745C31.5306 28.8431 30.9813 29.3261 30.3392 29.6923C30.1346 30.8551 29.7045 31.7646 29.0015 32.4038C27.8363 33.468 25.7541 34.1021 23.8518 33.9865C22.0462 33.8777 20.9776 33.6805 18.4576 32.9665C16.796 32.4956 13.3553 31.7136 8.16951 30.6256H2.49683ZM5.71968 15.6129C5.71918 15.4608 5.75214 15.3101 5.81667 15.1694C5.88119 15.0288 5.97601 14.9009 6.0957 14.7932C6.21539 14.6855 6.35758 14.6001 6.51415 14.5418C6.67071 14.4835 6.83855 14.4535 7.00807 14.4535C7.17726 14.4539 7.3447 14.4842 7.50082 14.5427C7.65695 14.6013 7.7987 14.6868 7.91798 14.7944C8.03727 14.9021 8.13175 15.0298 8.19604 15.1702C8.26033 15.3106 8.29316 15.461 8.29266 15.6129V28.6655C8.29291 28.8173 8.25983 28.9676 8.19532 29.108C8.1308 29.2483 8.0361 29.3759 7.91664 29.4834C7.79718 29.5909 7.65529 29.6762 7.49907 29.7345C7.34285 29.7928 7.17536 29.823 7.00617 29.8232C6.83698 29.823 6.66949 29.7928 6.51327 29.7345C6.35705 29.6762 6.21516 29.5909 6.0957 29.4834C5.97624 29.3759 5.88155 29.2483 5.81703 29.108C5.75251 28.9676 5.71943 28.8173 5.71968 28.6655V15.6129Z" fill="black"/>
</svg>
